# xmcd CD database file
#
# Track frame offsets:
#	225
#	13551
#	28878
#	52017
#	69897
#	84603
#	99936
#	115462
#	130983
#	148206
#	164052
#
# Disc length: 2349 seconds
#
# Revision: 0
# Processed by: cddbd v1.4PL0 Copyright (c) Steve Scherf et al.
# Submitted via: NeoAudio 1.40Release
#
DISCID=9d092a0b
DTITLE=Kevin Key - Heartbreak And Blue
DYEAR=1998
DGENRE=Blues
TTITLE0=Set Me Free
TTITLE1=Can't Win For Losing
TTITLE2=Streets Of My Hometown
TTITLE3=Our Advice
TTITLE4=Heartbreak And Blue
TTITLE5=Alone A.M.
TTITLE6=Notice Me
TTITLE7=Make Believe
TTITLE8=Learn About Love
TTITLE9=Drunk In The Morning
TTITLE10=Two And Two Make Five
EXTD=YEAR: 1998 ID3G: 0
EXTT0=
EXTT1=
EXTT2=
EXTT3=
EXTT4=
EXTT5=
EXTT6=
EXTT7=
EXTT8=
EXTT9=
EXTT10=
PLAYORDER=
